<svg width="1440" height="943" viewBox="0 0 1440 943" fill="none" xmlns="http://www.w3.org/2000/svg">
<path fill-rule="evenodd" clip-rule="evenodd" d="M0 943H1440V0.000388692C1199 -0.000125711 960 0.000262981 720 0.000262981C480 0.000262981 261.5 0.000262981 0 0.000262981V943Z" fill="#FF6F88"/>
<rect x="1087.5" y="787.244" width="49" height="49" rx="24.5" stroke="white"/>
<path fill-rule="evenodd" clip-rule="evenodd" d="M1118 803.744H1106C1104.9 803.744 1104 804.641 1104 805.744V817.744C1104 818.847 1104.9 819.744 1106 819.744H1112V814.244H1110V811.744H1112V809.744C1112 808.948 1112.32 808.185 1112.88 807.623C1113.44 807.06 1114.2 806.744 1115 806.744H1117V809.244H1116C1115.45 809.244 1115 809.192 1115 809.744V811.744H1117.5L1116.5 814.244H1115V819.744H1118C1119.1 819.744 1120 818.847 1120 817.744V805.744C1120 804.641 1119.1 803.744 1118 803.744Z" fill="white"/>
<rect x="1149.5" y="787.244" width="49" height="49" rx="24.5" stroke="white"/>
<path d="M1174 805.19C1176.12 805.19 1176.41 805.19 1177.28 805.19C1178.05 805.19 1178.43 805.383 1178.72 805.479C1179.11 805.672 1179.4 805.768 1179.69 806.057C1179.98 806.347 1180.17 806.636 1180.27 807.021C1180.36 807.31 1180.46 807.696 1180.55 808.467C1180.55 809.335 1180.55 809.527 1180.55 811.744C1180.55 813.961 1180.55 814.154 1180.55 815.021C1180.55 815.792 1180.36 816.178 1180.27 816.467C1180.07 816.853 1179.98 817.142 1179.69 817.431C1179.4 817.72 1179.11 817.913 1178.72 818.009C1178.43 818.106 1178.05 818.202 1177.28 818.298C1176.41 818.298 1176.22 818.298 1174 818.298C1171.78 818.298 1171.59 818.298 1170.72 818.298C1169.95 818.298 1169.57 818.106 1169.28 818.009C1168.89 817.816 1168.6 817.72 1168.31 817.431C1168.02 817.142 1167.83 816.853 1167.73 816.467C1167.64 816.178 1167.54 815.792 1167.45 815.021C1167.45 814.154 1167.45 813.961 1167.45 811.744C1167.45 809.527 1167.45 809.335 1167.45 808.467C1167.45 807.696 1167.64 807.31 1167.73 807.021C1167.93 806.636 1168.02 806.347 1168.31 806.057C1168.6 805.768 1168.89 805.575 1169.28 805.479C1169.57 805.383 1169.95 805.286 1170.72 805.19C1171.59 805.19 1171.88 805.19 1174 805.19ZM1174 803.744C1171.78 803.744 1171.59 803.744 1170.72 803.744C1169.86 803.744 1169.28 803.937 1168.8 804.13C1168.31 804.322 1167.83 804.612 1167.35 805.094C1166.87 805.575 1166.67 805.961 1166.39 806.539C1166.19 807.021 1166.1 807.6 1166 808.467C1166 809.335 1166 809.624 1166 811.744C1166 813.961 1166 814.154 1166 815.021C1166 815.889 1166.19 816.467 1166.39 816.949C1166.58 817.431 1166.87 817.913 1167.35 818.395C1167.83 818.877 1168.22 819.069 1168.8 819.359C1169.28 819.551 1169.86 819.648 1170.72 819.744C1171.59 819.744 1171.88 819.744 1174 819.744C1176.12 819.744 1176.41 819.744 1177.28 819.744C1178.14 819.744 1178.72 819.551 1179.2 819.359C1179.69 819.166 1180.17 818.877 1180.65 818.395C1181.13 817.913 1181.33 817.527 1181.61 816.949C1181.81 816.467 1181.9 815.889 1182 815.021C1182 814.154 1182 813.865 1182 811.744C1182 809.624 1182 809.335 1182 808.467C1182 807.6 1181.81 807.021 1181.61 806.539C1181.42 806.057 1181.13 805.575 1180.65 805.094C1180.17 804.612 1179.78 804.419 1179.2 804.13C1178.72 803.937 1178.14 803.841 1177.28 803.744C1176.41 803.744 1176.22 803.744 1174 803.744Z" fill="white"/>
<path d="M1174 807.6C1171.69 807.6 1169.86 809.431 1169.86 811.744C1169.86 814.057 1171.69 815.889 1174 815.889C1176.31 815.889 1178.14 814.057 1178.14 811.744C1178.14 809.431 1176.31 807.6 1174 807.6ZM1174 814.443C1172.55 814.443 1171.3 813.286 1171.3 811.744C1171.3 810.298 1172.46 809.045 1174 809.045C1175.45 809.045 1176.7 810.202 1176.7 811.744C1176.7 813.19 1175.45 814.443 1174 814.443Z" fill="white"/>
<path d="M1178.24 808.467C1178.77 808.467 1179.2 808.036 1179.2 807.503C1179.2 806.971 1178.77 806.539 1178.24 806.539C1177.71 806.539 1177.28 806.971 1177.28 807.503C1177.28 808.036 1177.71 808.467 1178.24 808.467Z" fill="white"/>
<rect x="1211.5" y="787.244" width="49" height="49" rx="24.5" stroke="white"/>
<path d="M1246.45 806.173C1246.18 805.173 1245.49 804.458 1244.53 804.173C1242.88 803.744 1235.86 803.744 1235.86 803.744C1235.86 803.744 1228.99 803.744 1227.2 804.173C1226.24 804.458 1225.55 805.173 1225.27 806.173C1225 808.03 1225 811.744 1225 811.744C1225 811.744 1225 815.458 1225.41 817.316C1225.69 818.316 1226.37 819.03 1227.34 819.316C1228.99 819.744 1236 819.744 1236 819.744C1236 819.744 1242.87 819.744 1244.66 819.316C1245.62 819.03 1246.31 818.316 1246.59 817.316C1247 815.458 1247 811.744 1247 811.744C1247 811.744 1247 808.03 1246.45 806.173ZM1233.8 815.173V808.316L1239.58 811.744L1233.8 815.173Z" fill="white"/>
<rect x="1273.5" y="787.244" width="49" height="49" rx="24.5" stroke="white"/>
<path d="M1307.5 805.605C1306.85 806.052 1306.08 806.29 1305.29 806.287C1306.13 805.778 1306.76 804.968 1307.06 804.012C1306.36 804.618 1305.48 804.959 1304.57 804.979C1303.97 804.345 1303.19 803.928 1302.34 803.793C1301.49 803.657 1300.62 803.809 1299.86 804.225C1299.1 804.642 1298.49 805.301 1298.13 806.104C1297.76 806.906 1297.66 807.809 1297.83 808.677C1296.29 808.593 1294.78 808.174 1293.4 807.449C1292.02 806.724 1290.8 805.708 1289.83 804.467C1289.35 805.355 1289.21 806.394 1289.43 807.382C1289.66 808.37 1290.23 809.237 1291.04 809.815C1290.43 809.824 1289.82 809.687 1289.27 809.416C1289.29 810.333 1289.6 811.218 1290.16 811.929C1290.72 812.641 1291.5 813.138 1292.37 813.342C1291.79 813.497 1291.18 813.517 1290.6 813.399C1290.85 814.211 1291.34 814.921 1292.01 815.431C1292.67 815.941 1293.47 816.225 1294.3 816.244C1292.55 817.336 1290.54 817.907 1288.5 817.893C1290.21 819.045 1292.2 819.684 1294.24 819.74C1296.29 819.796 1298.31 819.267 1300.08 818.211C1301.84 817.156 1303.29 815.615 1304.26 813.761C1305.23 811.907 1305.68 809.812 1305.57 807.71C1306.3 807.096 1306.95 806.388 1307.5 805.605Z" fill="white"/>
<path opacity="0.33" d="M681.12 137.52C387.504 317.95 302.256 68.0447 219.888 137.52C95.04 243.367 0 121.99 0 121.99V0H1440V121.99C1440 121.99 1350.58 175.322 1303.34 181.861C1256.11 188.604 1212.91 156.727 1194.19 136.702C1160.64 101.352 1073.23 17.7774 1000.66 9.6039C928.08 1.43037 709.056 120.56 681.12 137.52Z" fill="white"/>
<path opacity="0.66" d="M1056.96 137.465C991.44 137.465 945.792 90.0774 871.056 57.6005C829.872 39.8301 654.624 36.9705 505.296 137.465C355.968 237.959 373.248 67.2006 290.448 137.465C166.608 241.636 0 81.2943 0 81.2943V0H1440V74.5538C1440 74.5538 1399.39 36.7663 1307.38 36.7663C1166.69 36.9705 1117.01 137.465 1056.96 137.465Z" fill="white"/>
<path d="M1103.18 58.9387C815.184 -58.3269 720.144 192.52 534.24 98.7071C348.48 3.67093 348.48 11.0128 266.112 42.0117C184.32 73.0106 190.512 91.5692 129.456 107.069C41.184 129.91 0 0 0 0H1440C1440 0 1425.74 83.4116 1319.62 98.0952C1213.49 112.779 1194.62 95.8519 1103.18 58.9387Z" fill="white"/>
</svg>
